<?xml version="1.0" encoding="utf-8"?>
<svg id="master-artboard" viewBox="0 0 104.39151000976562 151.4254608154297" version="1.1" xmlns="http://www.w3.org/2000/svg" x="0px" y="0px" style="enable-background:new 0 0 216 151.2;" width="104.39151000976562px" height="151.4254608154297px" xmlns:xlink="http://www.w3.org/1999/xlink"><rect id="ee-background" x="0" y="0" width="104.39151000976562" height="151.4254608154297" style="fill: rgb(107, 115, 255); fill-opacity: 1; pointer-events: none;"/>

<defs>
						<path id="SVGID_19_" d="M216,92.8c-72-71.7-144,71.7-216,0C0,61.9,0,30.9,0,0c72,0,144,0,216,0C216,30.9,216,61.9,216,92.8z"/>
					</defs><clipPath id="SVGID_20_">
						<use style="overflow:visible;" xlink:href="#SVGID_19_"/>
					</clipPath><defs>
						<path id="SVGID_23_" d="M216,92.8c-72-71.7-144,71.7-216,0C0,61.9,0,30.9,0,0c72,0,144,0,216,0C216,30.9,216,61.9,216,92.8z"/>
					</defs><clipPath id="SVGID_24_">
						<use style="overflow:visible;" xlink:href="#SVGID_23_"/>
					</clipPath><defs>
						<path id="SVGID_31_" d="M216,92.8c-72-71.7-144,71.7-216,0C0,61.9,0,30.9,0,0c72,0,144,0,216,0C216,30.9,216,61.9,216,92.8z"/>
					</defs><clipPath id="SVGID_32_">
						<use style="overflow:visible;" xlink:href="#SVGID_31_"/>
					</clipPath><defs>
						<path id="SVGID_35_" d="M216,92.8c-72-71.7-144,71.7-216,0C0,61.9,0,30.9,0,0c72,0,144,0,216,0C216,30.9,216,61.9,216,92.8z"/>
					</defs><clipPath id="SVGID_36_">
						<use style="overflow:visible;" xlink:href="#SVGID_35_"/>
					</clipPath>
<path class="st0" d="M216,23.7C144-26.6,72,76.2,0,25.9C0,4.1,0,21.7,0,0c72,0,144,0,216,0C216,21.7,216,2,216,23.7z" style="fill: rgb(255, 255, 255); stroke: rgb(0, 0, 0); stroke-width: 0; fill-opacity: 1;" transform="matrix(0.48894514857568083, 0, 0, 0.4973599042272099, -0.04828593134880066, 114.91729446257442)"/><g transform="matrix(1.1961176064507526, 0, 0, 1.1961176064507526, -77.32317710169227, -59.50057594755508)"><g id="g-1" transform="matrix(1, 0, 0, 1, 0, 0)">
	<g id="g-2">
		<path class="st0" d="M58,49h100v100H58V49z" style="fill: rgb(255, 255, 255);"/>
	</g>
</g></g><path d="M 63.424530029296875 53.052833557128906" style="fill-opacity: 1; stroke: rgb(0, 0, 0); stroke-opacity: 1; stroke-width: 10; paint-order: fill;"/></svg>